<svg width="48" height="48" viewBox="0 0 48 48" fill="none" xmlns="http://www.w3.org/2000/svg">
<rect width="48" height="48" rx="10" fill="url(#paint0_linear_1227_1797)"/>
<g filter="url(#filter0_d_1227_1797)">
<path d="M36.5837 19.5558L28.3627 18.5048L27.3302 10.3468C27.1022 8.53394 25.3153 7.31238 23.4356 7.31238C21.5764 7.31238 19.7951 8.48389 19.5559 10.2912L18.5049 18.5122L10.3469 19.5447C8.49513 19.7875 7.3125 21.5596 7.3125 23.4392C7.3125 25.3188 8.43211 27.0928 10.2913 27.3189L18.5123 28.37L19.5448 36.5279C19.7728 38.4131 21.5597 39.5624 23.4394 39.5624C25.2986 39.5624 27.104 38.2982 27.3191 36.5835L28.3701 28.3626L36.5281 27.3301C38.391 27.0928 39.5625 25.3151 39.5625 23.4355C39.5625 21.5559 38.3928 19.7838 36.5837 19.5558Z" fill="#AF9BFF"/>
<path d="M37.1462 20.1184L28.9252 19.0673L27.8927 10.9094C27.6647 9.0965 25.8778 7.87494 23.9981 7.87494C22.1389 7.87494 20.3576 9.04645 20.1184 10.8538L19.0674 19.0748L10.9094 20.1073C9.05764 20.3501 7.875 22.1222 7.875 24.0018C7.875 25.8814 8.99461 27.6554 10.8538 27.8815L19.0748 28.9325L20.1073 37.0905C20.3353 38.9757 22.1222 40.1249 24.0019 40.1249C25.8611 40.1249 27.6665 38.8607 27.8816 37.1461L28.9326 28.9251L37.0906 27.8926C38.9535 27.6554 40.125 25.8777 40.125 23.9981C40.125 22.1185 38.9553 20.3464 37.1462 20.1184Z" fill="url(#paint1_linear_1227_1797)"/>
</g>
<defs>
<filter id="filter0_d_1227_1797" x="6.46875" y="7.21863" width="35.8125" height="35.8126" filterUnits="userSpaceOnUse" color-interpolation-filters="sRGB">
<feFlood flood-opacity="0" result="BackgroundImageFix"/>
<feColorMatrix in="SourceAlpha" type="matrix" values="0 0 0 0 0 0 0 0 0 0 0 0 0 0 0 0 0 0 127 0" result="hardAlpha"/>
<feOffset dx="0.65625" dy="1.40625"/>
<feGaussianBlur stdDeviation="0.75"/>
<feColorMatrix type="matrix" values="0 0 0 0 0.192157 0 0 0 0 0.105882 0 0 0 0 0.572549 0 0 0 0.25 0"/>
<feBlend mode="normal" in2="BackgroundImageFix" result="effect1_dropShadow_1227_1797"/>
<feBlend mode="normal" in="SourceGraphic" in2="effect1_dropShadow_1227_1797" result="shape"/>
</filter>
<linearGradient id="paint0_linear_1227_1797" x1="32.4789" y1="47.2971" x2="16.7333" y2="4.03525" gradientUnits="userSpaceOnUse">
<stop stop-color="#643ECC"/>
<stop offset="0.5" stop-color="#7C4DFF"/>
<stop offset="1" stop-color="#A380FF"/>
</linearGradient>
<linearGradient id="paint1_linear_1227_1797" x1="24" y1="40.1249" x2="24" y2="7.87494" gradientUnits="userSpaceOnUse">
<stop stop-color="#E6CCFF"/>
<stop offset="0.7" stop-color="#F7F7F7"/>
</linearGradient>
</defs>
</svg>
