<svg width="24" height="24" viewBox="0 0 24 24" fill="none" xmlns="http://www.w3.org/2000/svg">
<g clip-path="url(#clip0_1242_1633)">
<path fill-rule="evenodd" clip-rule="evenodd" d="M6 0C2.68629 0 0 2.68629 0 6V18C0 21.3137 2.68629 24 6 24H10.125V15.4688H7.07812V12H10.125V9.35625C10.125 6.34922 11.9156 4.6875 14.6578 4.6875C15.9703 4.6875 17.3438 4.92188 17.3438 4.92188V7.875H15.8297C14.3391 7.875 13.875 8.80078 13.875 9.75V12H17.2031L16.6711 15.4688H13.875V24H18C21.3137 24 24 21.3137 24 18V6C24 2.68629 21.3137 0 18 0H6Z" fill="#626B79"/>
</g>
<defs>
<clipPath id="clip0_1242_1633">
<rect width="24" height="24" fill="white"/>
</clipPath>
</defs>
</svg>
