<svg width="24" height="24" viewBox="0 0 24 24" fill="none" xmlns="http://www.w3.org/2000/svg">
<g clip-path="url(#clip0_1242_1629)">
<path fill-rule="evenodd" clip-rule="evenodd" d="M6 0C2.68629 0 0 2.68629 0 6V18C0 21.3137 2.68629 24 6 24H18C21.3137 24 24 21.3137 24 18V6C24 2.68629 21.3137 0 18 0H6ZM18.0361 10.098C18.0361 13.92 15.1261 18.33 9.80408 18.33C8.17208 18.33 6.64808 17.85 5.38208 17.022C5.61008 17.052 5.83808 17.064 6.07208 17.064C7.42808 17.064 8.67608 16.602 9.66608 15.828C8.40008 15.804 7.33208 14.97 6.96608 13.818C7.14608 13.854 7.32608 13.872 7.51208 13.872C7.77608 13.872 8.03408 13.836 8.27408 13.77C6.94808 13.5 5.95208 12.336 5.95208 10.932V10.896C6.34208 11.112 6.78608 11.244 7.26008 11.256C6.48008 10.74 5.97008 9.852 5.97008 8.85C5.97008 8.32199 6.11408 7.824 6.36008 7.398C7.78808 9.15 9.91808 10.302 12.3241 10.422C12.2701 10.212 12.2461 9.99 12.2461 9.762C12.2461 8.16599 13.5421 6.87 15.1381 6.87C15.9721 6.87 16.7221 7.218 17.2501 7.78199C17.9101 7.64999 18.5281 7.41 19.0861 7.08C18.8701 7.758 18.4141 8.32199 17.8141 8.682C18.4021 8.60999 18.9601 8.454 19.4761 8.226C19.0861 8.808 18.5941 9.318 18.0301 9.726C18.0361 9.846 18.0361 9.972 18.0361 10.098Z" fill="#626B79"/>
</g>
<defs>
<clipPath id="clip0_1242_1629">
<rect width="24" height="24" fill="white"/>
</clipPath>
</defs>
</svg>
