<svg width="48" height="48" viewBox="0 0 48 48" fill="none" xmlns="http://www.w3.org/2000/svg">
<rect width="48" height="48" rx="10" fill="url(#paint0_linear_1227_1724)"/>
<g filter="url(#filter0_d_1227_1724)">
<path d="M36.6684 11.7807L26.9764 35.0007C25.824 37.5233 23.8112 39.7499 20.8577 39.7499C17.9366 39.7499 15.8076 37.7342 14.7628 35.0858L9.42426 19.7242C8.88135 18.161 9.26719 16.6047 10.633 15.8171C12.0005 15.0312 13.5319 15.4497 14.633 16.7271L20.8577 23.8015L31.4579 8.78185C32.4618 7.46869 34.0051 7.16252 35.458 7.87183C36.8255 8.65768 37.2864 10.2379 36.6667 11.779L36.6684 11.7807Z" fill="#FFC400"/>
<path d="M37.6059 12.1557L27.9139 35.3757C26.7615 37.8983 24.7487 40.1249 21.7951 40.1249C18.8741 40.1249 16.7451 38.1092 15.7003 35.4608L10.3618 20.0992C9.81885 18.536 10.2047 16.9797 11.5705 16.1921C12.938 15.4062 14.4694 15.8247 15.5705 17.1021L21.7951 24.1765L32.3954 9.15685C33.3993 7.84369 34.9426 7.53752 36.3955 8.24683C37.763 9.03268 38.2239 10.6129 37.6042 12.154L37.6059 12.1557Z" fill="url(#paint1_linear_1227_1724)"/>
</g>
<defs>
<filter id="filter0_d_1227_1724" x="8.34375" y="7.40613" width="31.6875" height="35.625" filterUnits="userSpaceOnUse" color-interpolation-filters="sRGB">
<feFlood flood-opacity="0" result="BackgroundImageFix"/>
<feColorMatrix in="SourceAlpha" type="matrix" values="0 0 0 0 0 0 0 0 0 0 0 0 0 0 0 0 0 0 127 0" result="hardAlpha"/>
<feOffset dx="0.65625" dy="1.40625"/>
<feGaussianBlur stdDeviation="0.75"/>
<feColorMatrix type="matrix" values="0 0 0 0 0.909804 0 0 0 0 0.341176 0 0 0 0 0.121569 0 0 0 0.25 0"/>
<feBlend mode="normal" in2="BackgroundImageFix" result="effect1_dropShadow_1227_1724"/>
<feBlend mode="normal" in="SourceGraphic" in2="effect1_dropShadow_1227_1724" result="shape"/>
</filter>
<linearGradient id="paint0_linear_1227_1724" x1="32.4789" y1="47.2971" x2="16.7333" y2="4.03525" gradientUnits="userSpaceOnUse">
<stop stop-color="#FF7C1F"/>
<stop offset="0.5" stop-color="#FF9100"/>
<stop offset="1" stop-color="#FFC333"/>
</linearGradient>
<linearGradient id="paint1_linear_1227_1724" x1="23.9992" y1="40.1249" x2="23.9992" y2="7.87771" gradientUnits="userSpaceOnUse">
<stop stop-color="#FFE6CC"/>
<stop offset="0.7" stop-color="#F7F7F7"/>
</linearGradient>
</defs>
</svg>
