<svg width="229" height="32" viewBox="0 0 229 32" fill="none" xmlns="http://www.w3.org/2000/svg">
<path d="M11.6111 11.3155C10.4002 10.465 9.25572 10.1394 7.78555 10.1394C6.31539 10.1394 5.46175 10.6958 5.46175 11.4799C5.46175 12.362 6.28061 12.8552 7.84879 12.8868C11.0231 12.9848 14.8487 13.6393 14.8803 18.0877C14.9119 20.7056 12.9517 23.5163 7.81401 23.5163C5.42697 23.5163 2.97354 23.0578 0.226074 20.7688L2.25269 17.4333C4.24768 19.0678 6.17944 19.4283 7.87724 19.4599C9.25255 19.4915 10.3307 18.935 10.2991 18.0877C10.2991 17.3353 9.74261 16.7124 7.55159 16.6492C4.54171 16.5196 0.779361 15.2739 0.779361 11.4799C0.779361 7.68594 4.24768 6.27901 7.74761 6.27901C10.2327 6.27901 12.2277 6.90185 13.9286 8.37201L11.6048 11.3155H11.6111Z" fill="black"/>
<path d="M22.1109 0.0316162V22.8934H17.4348V0.0316162H22.1109Z" fill="black"/>
<path d="M29.6989 16.352C29.9265 17.9233 31.4314 19.1975 34.0809 19.1975C35.3582 19.1975 37.1224 18.9034 38.2669 17.9233L40.9164 20.8668C39.1838 22.5678 36.4015 23.2538 33.9829 23.2538C28.1275 23.2538 24.9216 19.8203 24.9216 14.651C24.9216 9.48175 28.2255 6.31062 33.4897 6.31062C38.7538 6.31062 42.5825 9.74416 41.5677 16.352H29.6957H29.6989ZM37.3532 12.9184C37.2552 11.1511 35.4562 10.3354 33.4928 10.3354C31.5295 10.3354 30.1573 11.3155 29.6989 12.9184H37.3532Z" fill="black"/>
<path d="M48.245 16.352C48.4726 17.9233 49.9776 19.1975 52.627 19.1975C53.9012 19.1975 55.6685 18.9034 56.813 17.9233L59.4625 20.8668C57.7299 22.5678 54.9477 23.2538 52.529 23.2538C46.6737 23.2538 43.4678 19.8203 43.4678 14.651C43.4678 9.48175 46.7717 6.31062 52.0358 6.31062C57.2999 6.31062 61.1287 9.74416 60.1138 16.352H48.2418H48.245ZM55.8993 12.9184C55.8013 11.1511 54.0024 10.3354 52.039 10.3354C50.0756 10.3354 48.7034 11.3155 48.245 12.9184H55.8993Z" fill="black"/>
<path d="M67.6417 0.0316162V13.0829L72.4158 6.76907H77.9771V7.0631L72.0554 14.357L78.8909 22.533V22.8934H73.2315L67.6386 15.7955V22.8934H62.9277V0.0316162H67.6386H67.6417Z" fill="black"/>
<path d="M85.271 6.76907V8.53643C86.3491 7.03149 87.7908 6.37703 89.5898 6.37703C91.1264 6.37703 92.4037 6.83547 93.5482 7.85035L91.5848 11.5779C90.8007 11.0215 89.9819 10.7591 89.0018 10.7591C86.972 10.7591 85.2394 12.068 85.2394 14.4866V22.8934H80.5286V6.76907H85.271Z" fill="black"/>
<path d="M101.455 0V10.269C102.764 7.65117 105.379 6.47504 108.161 6.47504C112.676 6.47504 116.274 9.48491 116.274 14.8154C116.274 20.146 112.708 23.1558 108.196 23.1558C105.449 23.1558 102.799 21.7805 101.459 19.3303V22.8966H99.8872V0H101.459H101.455ZM101.487 14.7838C101.487 18.8054 104.301 21.5877 108.095 21.5877C111.889 21.5877 114.703 19.2986 114.703 14.8186C114.703 10.3386 111.728 8.01475 108.095 8.01475C104.462 8.01475 101.487 10.7622 101.487 14.7838Z" fill="#179E63"/>
<path d="M122.028 0V22.8934H120.425V0H122.028Z" fill="#179E63"/>
<path d="M126.151 14.8818C126.151 9.74733 129.815 6.47504 134.362 6.47504C138.908 6.47504 142.572 9.74733 142.572 14.8818C142.572 20.0163 138.908 23.1558 134.362 23.1558C129.815 23.1558 126.151 20.0163 126.151 14.8818ZM141.001 14.8818C141.001 10.6958 138.026 7.97998 134.362 7.97998C130.697 7.97998 127.722 10.6958 127.722 14.8818C127.722 19.0678 130.697 21.5877 134.362 21.5877C138.026 21.5877 141.001 19.0678 141.001 14.8818Z" fill="#179E63"/>
<path d="M154.182 31.139C151.479 31.139 149.048 30.5604 146.888 29.4064L147.445 28.2303C149.56 29.2989 151.804 29.8332 154.182 29.8332C156.123 29.8332 157.654 29.2673 158.779 28.1323C159.901 26.9972 160.474 25.4607 160.496 23.5194C160.496 21.36 160.518 19.8456 160.562 18.973H160.496C160.126 20.1491 159.298 21.1324 158.011 21.9165C156.724 22.7006 155.285 23.0926 153.692 23.0926C151.314 23.0926 149.364 22.318 147.837 20.7688C146.31 19.2196 145.548 17.2373 145.548 14.8154C145.548 12.3936 146.306 10.3733 147.821 8.81465C149.335 7.25596 151.27 6.47504 153.626 6.47504C155.26 6.47504 156.711 6.87973 157.976 7.68594C159.241 8.49216 160.091 9.53867 160.527 10.8255H160.594C160.527 9.88961 160.496 8.52378 160.496 6.73745H161.836V23.3519C161.836 25.7515 161.15 27.6485 159.775 29.0428C158.4 30.4371 156.537 31.1358 154.182 31.1358V31.139ZM153.79 21.7837C155.839 21.7837 157.47 21.145 158.681 19.8709C159.892 18.5968 160.496 16.8673 160.496 14.6858C160.496 12.5043 159.87 10.9393 158.615 9.66513C157.359 8.38783 155.719 7.75234 153.692 7.75234C151.665 7.75234 150.085 8.41312 148.82 9.73152C147.555 11.0499 146.923 12.7477 146.923 14.8186C146.923 16.8895 147.565 18.543 148.852 19.8393C150.138 21.1356 151.786 21.7869 153.79 21.7869V21.7837Z" fill="#179E63"/>
<path d="M184.84 18.8813L182.292 18.3818L183.13 15.9188C183.279 15.4889 183.174 15.0557 182.798 14.8376C182.422 14.6194 181.989 14.7585 181.695 15.0905L179.981 17.0476L178.267 15.0905C177.967 14.7554 177.54 14.6257 177.164 14.8376C176.788 15.0526 176.68 15.492 176.832 15.9188L177.67 18.3818L175.122 18.8845C174.676 18.9698 174.35 19.2892 174.35 19.7223C174.35 20.1586 174.682 20.4621 175.118 20.5538L177.673 21.0534L176.835 23.5163C176.687 23.9463 176.791 24.3794 177.167 24.5975C177.543 24.8157 177.977 24.6766 178.271 24.3446L179.984 22.3876L181.698 24.3446C181.998 24.6797 182.425 24.8094 182.801 24.5975C183.177 24.3826 183.285 23.9431 183.133 23.5163L182.295 21.0534L184.85 20.5506C185.283 20.4621 185.618 20.1554 185.618 19.7191C185.618 19.2828 185.293 18.9667 184.847 18.8813H184.84Z" fill="#651FFF"/>
<path d="M192.599 23.4878V20.048C192.599 19.2038 192.261 18.6474 191.496 18.6474C190.731 18.6474 190.342 19.3366 190.342 20.0606V23.4878H188.473V17.076H190.237V17.8032C190.639 17.1013 191.379 16.9337 191.926 16.9337C192.628 16.9337 193.38 17.193 193.794 18.1288C194.366 17.2594 194.977 16.9211 195.922 16.9211C197.259 16.9211 198.48 17.5945 198.48 19.9847V23.4878H196.599V20.0227C196.599 19.2164 196.377 18.6853 195.625 18.6853C194.872 18.6853 194.442 19.3208 194.442 20.048V23.4878H192.599Z" fill="black"/>
<path d="M205.954 20.0606C205.954 20.3388 205.928 20.6044 205.875 20.8668H201.385C201.436 21.2399 201.619 21.5308 201.929 21.7426C202.242 21.9544 202.59 22.0619 202.982 22.0619C203.639 22.0619 204.218 21.8627 204.721 21.4644L205.59 22.6721C204.923 23.3139 204.019 23.6333 202.877 23.6333C201.84 23.6333 200.99 23.3455 200.326 22.7701C199.665 22.1947 199.333 21.3695 199.333 20.2977C199.333 19.2259 199.672 18.4197 200.351 17.8253C201.031 17.2341 201.847 16.9369 202.798 16.9369C203.75 16.9369 204.493 17.212 205.075 17.7621C205.66 18.3122 205.951 19.0805 205.951 20.0669L205.954 20.0606ZM203.671 18.7833C203.428 18.5715 203.121 18.464 202.751 18.464C202.381 18.464 202.068 18.5715 201.815 18.7833C201.565 18.9951 201.42 19.305 201.388 19.7097H204.022C204.031 19.3018 203.914 18.9951 203.671 18.7833Z" fill="black"/>
<path d="M208.692 14.4171V19.5958L210.586 17.0918H212.792V17.2088L210.443 20.1017L213.156 23.3456V23.4878H210.911L208.692 20.6708V23.4878H206.823V14.4171H208.692Z" fill="black"/>
<path d="M216.375 16.9337C217.446 16.9337 218.259 17.1361 218.809 17.5376C219.359 17.9391 219.634 18.581 219.634 19.4662V23.491H217.845V22.3243C217.671 22.7132 217.351 23.0262 216.963 23.2602C216.574 23.4941 216.128 23.6111 215.625 23.6111C214.968 23.6111 214.424 23.4214 213.991 23.0452C213.558 22.669 213.343 22.1663 213.343 21.5339C213.343 20.8668 213.583 20.3483 214.063 19.9752C214.544 19.6022 215.164 19.4156 215.926 19.4156C216.593 19.4156 217.149 19.5295 217.601 19.7539V19.6243C217.601 18.8623 217.108 18.4829 216.122 18.4829C215.534 18.4829 214.885 18.6031 214.174 18.8465L213.798 17.4333C214.629 17.1045 215.489 16.9401 216.381 16.9401L216.375 16.9337ZM216.27 22.0335C216.624 22.0335 216.928 21.9386 217.178 21.7489C217.427 21.5592 217.579 21.2936 217.633 20.9585C217.235 20.7498 216.808 20.6455 216.349 20.6455C216.046 20.6455 215.805 20.7056 215.628 20.8257C215.451 20.9459 215.363 21.1229 215.363 21.3569C215.363 21.5719 215.448 21.7394 215.622 21.8564C215.796 21.9734 216.011 22.0303 216.27 22.0303V22.0335Z" fill="black"/>
<path d="M222.477 17.0887V17.7906C222.903 17.193 223.476 16.9337 224.19 16.9337C224.8 16.9337 225.306 17.114 225.762 17.5186L224.984 18.9983C224.671 18.777 224.348 18.6726 223.959 18.6726C223.153 18.6726 222.467 19.1912 222.467 20.1523V23.4878H220.599V17.0887H222.48H222.477Z" fill="black"/>
<path d="M228.224 15.3751C228.224 16.7757 226.097 16.7757 226.097 15.3751C226.097 13.9744 228.224 13.9744 228.224 15.3751ZM226.226 17.0634V23.4878H228.095V17.0634H226.226Z" fill="black"/>
<path d="M175.191 10.1425H174.685V6.02608H176.554C178.448 6.02608 178.448 8.80832 176.554 8.81464H175.191V10.1425ZM176.554 6.50349H175.191V8.33724H176.554C177.765 8.33724 177.765 6.50349 176.554 6.50349Z" fill="black"/>
<path d="M179.959 7.17375C180.847 7.17375 181.47 7.79659 181.47 8.69766C181.47 9.59873 180.835 10.1963 179.959 10.1963C179.083 10.1963 178.454 9.57976 178.454 8.69766C178.454 7.81556 179.096 7.17375 179.959 7.17375ZM179.965 7.61322C179.371 7.61322 178.938 8.04952 178.938 8.6945C178.938 9.3047 179.368 9.741 179.962 9.741C180.557 9.741 180.99 9.3047 180.996 8.6945C180.996 8.04636 180.55 7.61322 179.969 7.61322H179.965Z" fill="black"/>
<path d="M182.466 7.23698L183.247 9.63034L184.019 7.23698H184.414L185.185 9.63034L185.966 7.23698H186.494L185.476 10.1489H184.923L184.528 9.06757L184.215 8.00842L183.898 9.06757L183.503 10.1489H182.956L181.929 7.23698H182.463H182.466Z" fill="black"/>
<path d="M189.741 9.67777C189.447 10.0255 188.941 10.1963 188.489 10.1963C187.588 10.1963 186.959 9.60189 186.959 8.67869C186.959 7.75549 187.588 7.17375 188.464 7.17375C189.339 7.17375 190.029 7.72072 189.915 8.87787H187.446C187.499 9.41219 187.939 9.74733 188.498 9.74733C188.827 9.74733 189.229 9.6177 189.422 9.38374L189.744 9.67777H189.738H189.741ZM189.46 8.47951C189.437 7.91357 189.049 7.61006 188.476 7.61006C187.97 7.61006 187.531 7.91674 187.449 8.47319H189.46V8.47951Z" fill="black"/>
<path d="M191.157 7.23066L191.192 7.66697C191.391 7.29073 191.752 7.1864 192.087 7.1864C192.34 7.18008 192.587 7.2686 192.764 7.40455L192.545 7.81556C192.394 7.71123 192.239 7.65748 192.04 7.65748C191.575 7.66381 191.186 7.99262 191.186 8.52693V10.1425H190.705V7.23699H191.151L191.157 7.23066Z" fill="black"/>
<path d="M195.846 9.67777C195.552 10.0255 195.046 10.1963 194.594 10.1963C193.693 10.1963 193.064 9.60189 193.064 8.67869C193.064 7.75549 193.693 7.17375 194.569 7.17375C195.445 7.17375 196.134 7.72072 196.02 8.87787H193.551C193.605 9.41219 194.044 9.74733 194.604 9.74733C194.932 9.74733 195.334 9.6177 195.527 9.38374L195.849 9.67777H195.843H195.846ZM195.565 8.47951C195.543 7.91357 195.154 7.61006 194.582 7.61006C194.076 7.61006 193.636 7.91674 193.554 8.47319H195.565V8.47951Z" fill="black"/>
<path d="M199.668 6.01976V10.1362H199.216L199.194 9.60822C198.96 10.0066 198.537 10.1963 198.107 10.1963C197.278 10.1963 196.636 9.64932 196.636 8.69135C196.636 7.73337 197.278 7.18641 198.1 7.18641C198.511 7.18641 198.982 7.3761 199.188 7.76815V6.02925H199.665L199.672 6.02292L199.668 6.01976ZM198.138 7.6322C197.572 7.6322 197.114 8.00211 197.114 8.68502C197.114 9.36794 197.572 9.73785 198.138 9.73785C198.704 9.73785 199.166 9.31419 199.166 8.6787C199.166 8.04321 198.707 7.6322 198.132 7.6322H198.138Z" fill="black"/>
<path d="M202.773 7.76498C202.979 7.36978 203.45 7.18324 203.861 7.18324C204.689 7.18324 205.331 7.71123 205.331 8.68818C205.331 9.66513 204.689 10.1931 203.855 10.1931C203.425 10.1931 203.001 10.0034 202.773 9.61138L202.751 10.1394H202.293V6.02292H202.773V7.76182V7.76498ZM202.795 8.68186C202.795 9.31734 203.248 9.74101 203.823 9.74101C204.398 9.74101 204.847 9.35845 204.847 8.68818C204.847 8.01791 204.389 7.63535 203.823 7.63535C203.257 7.63535 202.795 8.05901 202.795 8.68186Z" fill="black"/>
<path d="M206.842 11.5115H206.324L206.931 10.1014L205.761 7.23698H206.308L206.877 8.74825L207.193 9.5766L207.506 8.75457L208.148 7.23698H208.676L206.842 11.5115Z" fill="black"/>
</svg>
