<svg width="48" height="48" viewBox="0 0 48 48" fill="none" xmlns="http://www.w3.org/2000/svg">
<rect width="48" height="48" rx="10" fill="url(#paint0_linear_1227_1748)"/>
<g filter="url(#filter0_d_1227_1748)">
<path d="M35.811 31.12H23.6269C19.0798 31.12 15.3818 27.422 15.3818 22.8749C15.3818 18.3279 19.0798 14.6299 23.6269 14.6299C28.1739 14.6299 31.8719 18.3279 31.8719 22.8749V23.7017C31.8719 25.8742 33.6385 27.6407 35.811 27.6407C37.9835 27.6407 39.75 25.8742 39.75 23.7017V22.7804C39.724 18.4929 38.0354 14.4667 34.9954 11.4416C31.9535 8.41638 27.9162 6.74994 23.625 6.74994C14.7348 6.74994 7.5 13.9829 7.5 22.8749C7.5 31.767 14.733 38.9999 23.625 38.9999H35.8091C37.9816 38.9999 39.7481 37.2334 39.7481 35.0609C39.7481 32.8884 37.9816 31.1219 35.8091 31.1219L35.811 31.12Z" fill="#BCE1FF"/>
<path d="M36.186 32.245H24.0019C19.4548 32.245 15.7568 28.547 15.7568 23.9999C15.7568 19.4529 19.4548 15.7549 24.0019 15.7549C28.5489 15.7549 32.2469 19.4529 32.2469 23.9999V24.8267C32.2469 26.9992 34.0135 28.7657 36.186 28.7657C38.3585 28.7657 40.125 26.9992 40.125 24.8267V23.9054C40.099 19.6179 38.4104 15.5917 35.3704 12.5666C32.3285 9.54138 28.2912 7.87494 24 7.87494C15.1098 7.87494 7.875 15.1079 7.875 23.9999C7.875 32.892 15.108 40.1249 24 40.1249H36.1841C38.3566 40.1249 40.1231 38.3584 40.1231 36.1859C40.1231 34.0134 38.3566 32.2469 36.1841 32.2469L36.186 32.245Z" fill="url(#paint1_linear_1227_1748)"/>
</g>
<defs>
<filter id="filter0_d_1227_1748" x="6.65625" y="6.65619" width="35.625" height="36.375" filterUnits="userSpaceOnUse" color-interpolation-filters="sRGB">
<feFlood flood-opacity="0" result="BackgroundImageFix"/>
<feColorMatrix in="SourceAlpha" type="matrix" values="0 0 0 0 0 0 0 0 0 0 0 0 0 0 0 0 0 0 127 0" result="hardAlpha"/>
<feOffset dx="0.65625" dy="1.40625"/>
<feGaussianBlur stdDeviation="0.75"/>
<feColorMatrix type="matrix" values="0 0 0 0 0.0431373 0 0 0 0 0.282353 0 0 0 0 0.701961 0 0 0 0.25 0"/>
<feBlend mode="normal" in2="BackgroundImageFix" result="effect1_dropShadow_1227_1748"/>
<feBlend mode="normal" in="SourceGraphic" in2="effect1_dropShadow_1227_1748" result="shape"/>
</filter>
<linearGradient id="paint0_linear_1227_1748" x1="32.4789" y1="47.2971" x2="16.7333" y2="4.03525" gradientUnits="userSpaceOnUse">
<stop stop-color="#2E65EC"/>
<stop offset="0.5" stop-color="#2979FF"/>
<stop offset="1" stop-color="#26A9FF"/>
</linearGradient>
<linearGradient id="paint1_linear_1227_1748" x1="24.0019" y1="40.1249" x2="24.0019" y2="7.87494" gradientUnits="userSpaceOnUse">
<stop stop-color="#CCE6FF"/>
<stop offset="0.7" stop-color="#F7F7F7"/>
</linearGradient>
</defs>
</svg>
