<?xml version="1.0" encoding="UTF-8"?> <svg xmlns="http://www.w3.org/2000/svg" width="24" height="24" viewBox="0 0 24 24" fill="none"><path d="M20.0002 22V22.75H20.0002L20.0002 22ZM6.69414 4.22962L7.14414 4.82962V4.82962L6.69414 4.22962ZM10.6003 2.2L11.0503 1.6V1.6L10.6003 2.2ZM13.3065 4.22962L13.7565 3.62962V3.62962L13.3065 4.22962ZM14.6136 4.13673L15.1439 4.66706V4.66706L14.6136 4.13673ZM18.0003 3.16421L18.7503 3.16422V3.16421H18.0003ZM5.00024 14.0833C5.00024 14.4975 5.33603 14.8333 5.75024 14.8333C6.16446 14.8333 6.50024 14.4975 6.50024 14.0833H5.00024ZM8.20361 11.2317C8.00019 10.8709 7.54279 10.7433 7.18196 10.9467C6.82114 11.1501 6.69353 11.6076 6.89695 11.9684L8.20361 11.2317ZM8.29691 14.4517C8.50033 14.8125 8.95774 14.9401 9.31856 14.7367C9.67939 14.5332 9.80699 14.0758 9.60357 13.715L8.29691 14.4517ZM10.3336 16.75C10.3336 17.1642 10.6694 17.5 11.0836 17.5C11.4978 17.5 11.8336 17.1642 11.8336 16.75H10.3336ZM22.0001 20H21.2501V20L22.0001 20ZM18.0001 13V12.25C17.8011 12.25 17.6104 12.329 17.4697 12.4697C17.3291 12.6103 17.2501 12.8011 17.2501 13L18.0001 13ZM6.00031 21.25C4.90069 21.25 4.10903 20.9231 3.59314 20.4072C3.07724 19.8913 2.75031 19.0996 2.75031 18H1.25031C1.25031 19.4004 1.67337 20.6087 2.53248 21.4678C3.39158 22.3269 4.59992 22.75 6.00031 22.75V21.25ZM3.17708 2.98744L4.85671 4.66706L5.91737 3.6064L4.23774 1.92678L3.17708 2.98744ZM7.14414 4.82962L9.85031 2.8L8.95031 1.6L6.24414 3.62962L7.14414 4.82962ZM10.1503 2.8L12.8565 4.82962L13.7565 3.62962L11.0503 1.6L10.1503 2.8ZM15.1439 4.66706L16.8235 2.98744L15.7629 1.92678L14.0832 3.6064L15.1439 4.66706ZM16.8235 2.98744C16.981 2.82995 17.2503 2.94149 17.2503 3.16421H18.7503C18.7503 1.60513 16.8653 0.824336 15.7629 1.92678L16.8235 2.98744ZM12.8565 4.82962C13.5532 5.35216 14.5281 5.28287 15.1439 4.66706L14.0832 3.6064C13.9953 3.69437 13.856 3.70427 13.7565 3.62962L12.8565 4.82962ZM9.85031 2.8C9.93919 2.73333 10.0614 2.73333 10.1503 2.8L11.0503 1.6C10.4281 1.13333 9.57253 1.13333 8.95031 1.6L9.85031 2.8ZM4.85671 4.66706C5.47252 5.28287 6.44743 5.35216 7.14414 4.82962L6.24414 3.62962C6.14461 3.70427 6.00534 3.69437 5.91737 3.6064L4.85671 4.66706ZM2.75031 3.16421C2.75031 2.94149 3.01959 2.82994 3.17708 2.98744L4.23774 1.92678C3.13531 0.82434 1.25031 1.60513 1.25031 3.16421H2.75031ZM2.75031 18V3.16421H1.25031V18H2.75031ZM6.50024 9.35001C6.50024 9.43422 6.43446 9.5 6.35026 9.5V8C5.60604 8 5.00024 8.60579 5.00024 9.35001H6.50024ZM6.35026 9.5H7.88629V8H6.35026V9.5ZM7.88629 9.5C8.19201 9.5 8.46691 9.7339 8.46691 10.175H9.96691C9.96691 9.04413 9.15261 8 7.88629 8V9.5ZM8.46691 10.175C8.46691 10.6162 8.192 10.8501 7.88629 10.8501V12.3501C9.15261 12.3501 9.96691 11.3059 9.96691 10.175H8.46691ZM7.88629 10.8501H5.75024V12.3501H7.88629V10.8501ZM6.50024 11.6001V9.35001H5.00024V11.6001H6.50024ZM5.00024 11.6001V14.0833H6.50024V11.6001H5.00024ZM6.89695 11.9684L8.29691 14.4517L9.60357 13.715L8.20361 11.2317L6.89695 11.9684ZM11.8336 12.0167C11.8336 12.1009 11.7678 12.1667 11.6836 12.1667V10.6667C10.9394 10.6667 10.3336 11.2725 10.3336 12.0167H11.8336ZM11.6836 12.1667H13.2196V10.6667H11.6836V12.1667ZM13.2196 12.1667C13.5253 12.1667 13.8002 12.4006 13.8002 12.8417H15.3002C15.3002 11.7108 14.4859 10.6667 13.2196 10.6667V12.1667ZM13.8002 12.8417C13.8002 13.2828 13.5253 13.5167 13.2196 13.5167V15.0167C14.4859 15.0167 15.3002 13.9726 15.3002 12.8417H13.8002ZM13.2196 13.5167H11.0836V15.0167H13.2196V13.5167ZM11.8336 14.2667V12.0167H10.3336V14.2667H11.8336ZM10.3336 14.2667V16.75H11.8336V14.2667H10.3336ZM17.2502 20C17.2502 20.5801 17.3629 21.279 17.8145 21.8435C18.2917 22.44 19.0347 22.75 20.0002 22.75V21.25C19.3657 21.25 19.1087 21.06 18.9858 20.9065C18.8374 20.721 18.7502 20.4199 18.7502 20H17.2502ZM6.00031 22.75H20.0002V21.25H6.00031V22.75ZM17.2503 3.16421L17.2502 20L18.7502 20L18.7503 3.16422L17.2503 3.16421ZM22.7501 20V15.58H21.2501V20H22.7501ZM22.7501 15.58C22.7501 14.6294 22.446 13.7803 21.8329 13.1672C21.2197 12.554 20.3706 12.25 19.42 12.25V13.75C20.0495 13.75 20.4903 13.946 20.7722 14.2278C21.0541 14.5097 21.2501 14.9506 21.2501 15.58H22.7501ZM19.42 12.25H18.0001V13.75H19.42V12.25ZM17.2501 13L17.2502 20L18.7502 20L18.7501 13L17.2501 13ZM20.0002 22.75C20.6314 22.75 21.1547 22.59 21.5725 22.3115C21.9855 22.0361 22.2515 21.6743 22.421 21.3354C22.589 20.9993 22.6692 20.6724 22.7086 20.4358C22.7286 20.3157 22.7389 20.214 22.7443 20.1393C22.7469 20.1019 22.7484 20.0709 22.7492 20.0474C22.7495 20.0356 22.7498 20.0257 22.7499 20.0178C22.75 20.0138 22.75 20.0103 22.75 20.0074C22.75 20.0059 22.75 20.0045 22.7501 20.0033C22.7501 20.0027 22.7501 20.0021 22.7501 20.0015C22.7501 20.0012 22.7501 20.0008 22.7501 20.0007C22.7501 20.0003 22.7501 20 22.0001 20C21.2501 20 21.2501 19.9997 21.2501 19.9993C21.2501 19.9992 21.2501 19.9989 21.2501 19.9987C21.2501 19.9982 21.2501 19.9978 21.2501 19.9975C21.2501 19.9967 21.2501 19.9961 21.2501 19.9955C21.2501 19.9945 21.2501 19.9939 21.2501 19.9937C21.2501 19.9933 21.2501 19.9946 21.25 19.9975C21.2498 20.0033 21.2493 20.0153 21.2481 20.0325C21.2456 20.0673 21.2403 20.1218 21.229 20.1892C21.206 20.3276 21.1613 20.5007 21.0793 20.6646C20.9988 20.8256 20.8898 20.9638 20.7404 21.0635C20.5956 21.16 20.3689 21.25 20.0002 21.25L20.0002 22.75ZM17.2502 20C17.2502 20.4534 17.38 21.1167 17.7915 21.6882C18.2306 22.298 18.9557 22.75 20.0002 22.75V21.25C19.4446 21.25 19.1698 21.0353 19.0088 20.8118C18.8203 20.55 18.7502 20.2133 18.7502 20H17.2502Z" fill="#0031BE"></path></svg> 