<?xml version="1.0" encoding="UTF-8"?> <svg xmlns="http://www.w3.org/2000/svg" width="24" height="24" viewBox="0 0 24 24" fill="none"><path d="M10 22H14C19 22 21 20 21 15V9C21 4 19 2 14 2H10C5 2 3 4 3 9V15C3 20 5 22 10 22Z" stroke="#0031BE" stroke-width="1.5" stroke-linecap="round" stroke-linejoin="round"></path><path d="M16.5 7.58V8.58C16.5 9.4 15.83 10.08 15 10.08H9C8.18 10.08 7.5 9.41 7.5 8.58V7.58C7.5 6.76 8.17 6.08 9 6.08H15C15.83 6.08 16.5 6.75 16.5 7.58Z" stroke="#0031BE" stroke-width="1.5" stroke-linecap="round" stroke-linejoin="round"></path><path d="M8.13611 14H8.14766M11.9952 14H12.0068M15.8543 14H15.8659M8.13611 17.5H8.14766M11.9952 17.5H12.0068M15.8543 17.5H15.8659" stroke="#0031BE" stroke-width="2" stroke-linecap="round" stroke-linejoin="round"></path></svg> 