<?xml version="1.0" encoding="UTF-8"?> <svg xmlns="http://www.w3.org/2000/svg" width="56" height="56" viewBox="0 0 56 56" fill="none"><path d="M47.3982 41.1201H28.0013C20.765 41.1201 14.8776 35.2327 14.8776 27.9965C14.8776 20.7603 20.765 14.8729 28.0013 14.8729C35.2375 14.8729 41.1249 20.7603 41.1249 27.9965V29.3135C41.1249 32.7723 43.9394 35.5832 47.3946 35.5832C50.8499 35.5832 53.6644 32.7687 53.6644 29.3135V27.8478C53.6219 21.0222 50.9349 14.6144 46.0954 9.79972C41.2523 4.98501 34.8268 2.33337 27.9977 2.33337C13.8439 2.33337 2.33105 13.8462 2.33105 28C2.33105 42.1539 13.8439 53.6667 27.9977 53.6667H47.3946C50.8534 53.6667 53.6644 50.8522 53.6644 47.397C53.6644 43.9417 50.8499 41.1272 47.3946 41.1272L47.3982 41.1201Z" fill="#2979FF"></path></svg> 