<?xml version="1.0" encoding="UTF-8"?> <svg xmlns="http://www.w3.org/2000/svg" width="56" height="56" viewBox="0 0 56 56" fill="none"><path d="M11.5928 53.6667H42.0811C43.6511 53.6667 44.9239 52.3801 44.9239 50.7931C44.9239 49.206 43.6511 47.9195 42.0811 47.9195H11.5928C10.0228 47.9195 8.75 49.206 8.75 50.7931C8.75 52.3801 10.0228 53.6667 11.5928 53.6667Z" fill="#00C853"></path><path d="M33.8051 37.8353C32.2498 41.0919 29.5333 43.9655 25.5478 43.9655C21.6055 43.9655 18.735 41.3628 17.3213 37.9443L11.6943 25.9268C10.9612 23.9093 11.4818 21.8981 13.3266 20.8832C15.1715 19.8682 17.2382 20.4068 18.7258 22.0569L24.4298 30.5688L39.8541 3.98704C41.2093 2.29338 43.2914 1.89799 45.2533 2.81331C47.0982 3.82826 47.7203 5.8675 46.8856 7.85693L33.8051 37.8353Z" fill="#00C853"></path></svg> 