<?xml version="1.0" encoding="UTF-8"?> <svg xmlns="http://www.w3.org/2000/svg" width="56" height="56" viewBox="0 0 56 56" fill="none"><path d="M48.9237 21.8201L35.8346 20.149L34.1918 7.16258C33.8271 4.27356 30.9841 2.33337 27.9924 2.33337C25.0326 2.33337 22.1967 4.19921 21.8178 7.07407L20.1467 20.1632L7.16026 21.806C4.21105 22.1919 2.33105 25.0137 2.33105 28.0054C2.33105 30.9971 4.11191 33.8224 7.07175 34.1799L20.1609 35.851L21.8037 48.8375C22.1683 51.8398 25.0113 53.6667 28.003 53.6667C30.9629 53.6667 33.8342 51.6522 34.1776 48.926L35.8487 35.8369L48.8352 34.1941C51.8021 33.8188 53.6644 30.9864 53.6644 27.9947C53.6644 25.003 51.8021 22.1813 48.9237 21.8201Z" fill="#7C4DFF"></path></svg> 