<?xml version="1.0" encoding="UTF-8"?> <svg xmlns="http://www.w3.org/2000/svg" width="40" height="40" viewBox="0 0 40 40" fill="none"><path d="M31.9275 1.42847C33.466 1.42847 34.7131 2.67562 34.7131 4.21405V37.6411C34.7131 38.4196 33.8125 38.8525 33.2046 38.3661L29.142 35.116L25.0794 38.3661C24.7403 38.6374 24.2584 38.6374 23.9193 38.3661L19.8567 35.116L15.7941 38.3661C15.455 38.6374 14.9731 38.6374 14.634 38.3661L10.5714 35.116L6.50882 38.3661C5.90085 38.8525 5.00024 38.4196 5.00024 37.6411V4.21405C5.00024 2.67562 6.24739 1.42847 7.78583 1.42847H31.9275ZM22.4366 16.2849H21.2183C20.5484 16.2849 20.0053 16.8194 20.0053 17.4787V27.4272C20.0053 28.0866 20.1152 28.6211 20.7852 28.6211C21.4552 28.6211 21.7137 28.0866 21.7137 27.4272V23.7131C24.7307 23.7131 27.2889 22.2437 27.2889 19.8664C27.2889 17.4787 25.4648 16.2849 22.4366 16.2849ZM14.8598 10.7137H13.6416C12.9716 10.7137 12.4285 11.2482 12.4285 11.9076V21.8561C12.4285 22.5154 12.687 23.0499 13.357 23.0499C14.027 23.0499 14.2855 22.5154 14.2855 21.8561V18.142C14.4018 18.142 14.5172 18.1398 14.6316 18.1355L17.2077 22.3409C17.4755 22.7783 18.0471 22.9157 18.4845 22.648C18.9218 22.3802 19.0593 21.8086 18.7915 21.3712L16.6155 17.8154C18.453 17.2578 19.7121 16.0137 19.7121 14.2952C19.7121 11.9076 17.888 10.7137 14.8598 10.7137ZM21.7216 18.142C24.1924 18.142 25.4279 18.761 25.4279 19.999C25.4279 21.2371 24.1898 21.8561 21.7137 21.8561L21.7216 18.142ZM14.2934 12.5708C16.7642 12.5708 17.9996 13.1898 17.9996 14.4279C17.9996 15.6659 16.7616 16.2849 14.2855 16.2849L14.2934 12.5708Z" fill="#6557D6"></path></svg> 