<?xml version="1.0" encoding="UTF-8"?> <svg xmlns="http://www.w3.org/2000/svg" width="40" height="40" viewBox="0 0 40 40" fill="none"><path d="M26.1981 1.42871L34.7145 9.94517V34.8573C34.7145 36.9086 33.0516 38.5716 31.0002 38.5716H8.71453C6.66319 38.5716 5.00024 36.9086 5.00024 34.8573V5.143C5.00024 3.09165 6.66319 1.42871 8.71453 1.42871H26.1981ZM18.9288 14.4287C14.9039 14.4287 12.4288 17.1162 12.4288 20.9287C12.4288 24.5186 15.339 27.4287 18.9288 27.4287C22.7414 27.4287 25.4288 24.9536 25.4288 20.9287C25.4288 20.4159 25.0131 20.0001 24.5002 20.0001H19.8574V15.3573C19.8574 14.8444 19.4416 14.4287 18.9288 14.4287ZM22.6431 10.7144C22.1303 10.7144 21.7145 11.1302 21.7145 11.643V17.2144C21.7145 17.7273 22.1303 18.143 22.6431 18.143H28.2145C28.7274 18.143 29.1431 17.7273 29.1431 17.2144C29.1431 13.6246 26.2329 10.7144 22.6431 10.7144Z" fill="#4B7BEC"></path></svg> 