<?xml version="1.0" encoding="UTF-8"?> <svg xmlns="http://www.w3.org/2000/svg" width="40" height="40" viewBox="0 0 40 40" fill="none"><path d="M6.99965 18.1428V35.7856C6.99965 37.3241 5.75244 38.5713 4.21394 38.5713C2.67543 38.5713 1.42822 37.3241 1.42822 35.7856V23.7142C1.42822 20.6372 3.92264 18.1428 6.99965 18.1428ZM32.9997 1.42847C36.0767 1.42847 38.5711 3.92288 38.5711 6.9999V32.9999C38.5711 36.0769 36.0767 38.5713 32.9997 38.5713H6.07108L6.33936 38.5586C7.752 38.4236 8.85679 37.2336 8.85679 35.7856V6.9999C8.85679 3.92288 11.3512 1.42847 14.4282 1.42847H32.9997ZM19.9997 29.2856H16.2854L16.0688 29.2981C15.1452 29.4054 14.4282 30.1903 14.4282 31.1428C14.4282 32.1684 15.2597 32.9999 16.2854 32.9999H19.9997C21.0253 32.9999 21.8568 32.1684 21.8568 31.1428C21.8568 30.1171 21.0253 29.2856 19.9997 29.2856ZM31.1425 21.857H16.2854L16.0688 21.8695C15.1452 21.9768 14.4282 22.7618 14.4282 23.7142C14.4282 24.7399 15.2597 25.5713 16.2854 25.5713H31.1425C32.1682 25.5713 32.9997 24.7399 32.9997 23.7142C32.9997 22.6885 32.1682 21.857 31.1425 21.857ZM19.9997 8.85704H16.2854L16.0688 8.86953C15.1452 8.97681 14.4282 9.76177 14.4282 10.7142V14.4285L14.4407 14.6451C14.548 15.5687 15.333 16.2856 16.2854 16.2856H19.9997C21.0253 16.2856 21.8568 15.4541 21.8568 14.4285V10.7142L21.8443 10.4976C21.737 9.57397 20.9521 8.85704 19.9997 8.85704Z" fill="#3F51B5"></path></svg> 