<?xml version="1.0" encoding="UTF-8"?> <svg xmlns="http://www.w3.org/2000/svg" width="40" height="40" viewBox="0 0 40 40" fill="none"><path d="M33.8672 11.1328L24.5815 1.84704C24.3129 1.57847 23.9501 1.42847 23.5715 1.42847H8.5715C6.99293 1.42847 5.71436 2.70704 5.71436 4.28561V35.7142C5.71436 37.2928 6.99293 38.5713 8.5715 38.5713H31.4286C33.0072 38.5713 34.2858 37.2928 34.2858 35.7142V12.1428C34.2858 11.7642 34.1358 11.4013 33.8672 11.1328ZM23.2758 19.5813C22.7172 19.0228 22.7172 18.1199 23.2758 17.5613C23.8344 17.0028 24.7372 17.0028 25.2958 17.5613L26.4286 18.6942L27.5615 17.5613C28.1201 17.0028 29.0229 17.0028 29.5815 17.5613C30.1401 18.1199 30.1401 19.0228 29.5815 19.5813L28.4486 20.7142L29.5815 21.847C30.1401 22.4056 30.1401 23.3085 29.5815 23.867C29.3029 24.1456 28.9372 24.2856 28.5715 24.2856C28.2058 24.2856 27.8401 24.1456 27.5615 23.867L26.4286 22.7342L25.2958 23.867C25.0172 24.1456 24.6515 24.2856 24.2858 24.2856C23.9201 24.2856 23.5544 24.1456 23.2758 23.867C22.7172 23.3085 22.7172 22.4056 23.2758 21.847L24.4086 20.7142L23.2758 19.5813ZM11.4286 31.4285H10.0001C9.2115 31.4285 8.5715 30.7899 8.5715 29.9999C8.5715 29.2099 9.2115 28.5713 10.0001 28.5713H11.4286C12.2172 28.5713 12.8572 29.2099 12.8572 29.9999C12.8572 30.7899 12.2172 31.4285 11.4286 31.4285ZM11.4286 21.4285H10.0001C9.2115 21.4285 8.5715 20.7899 8.5715 19.9999C8.5715 19.2099 9.2115 18.5713 10.0001 18.5713H11.4286C12.2172 18.5713 12.8572 19.2099 12.8572 19.9999C12.8572 20.7899 12.2172 21.4285 11.4286 21.4285ZM18.5715 31.4285H17.1429C16.3544 31.4285 15.7144 30.7899 15.7144 29.9999C15.7144 29.2099 16.3544 28.5713 17.1429 28.5713H18.5715C19.3601 28.5713 20.0001 29.2099 20.0001 29.9999C20.0001 30.7899 19.3601 31.4285 18.5715 31.4285ZM18.5715 21.4285H17.1429C16.3544 21.4285 15.7144 20.7899 15.7144 19.9999C15.7144 19.2099 16.3544 18.5713 17.1429 18.5713H18.5715C19.3601 18.5713 20.0001 19.2099 20.0001 19.9999C20.0001 20.7899 19.3601 21.4285 18.5715 21.4285ZM31.0101 29.5813L26.7244 33.867C26.4458 34.1456 26.0801 34.2856 25.7144 34.2856C25.3486 34.2856 24.9829 34.1456 24.7044 33.867L23.2758 32.4385C22.7172 31.8799 22.7172 30.977 23.2758 30.4185C23.8344 29.8599 24.7372 29.8599 25.2958 30.4185L25.7144 30.837L28.9901 27.5613C29.5486 27.0028 30.4515 27.0028 31.0101 27.5613C31.5686 28.1199 31.5686 29.0228 31.0101 29.5813ZM24.2858 12.857C23.4972 12.857 22.8572 12.217 22.8572 11.4285V4.14847L31.5658 12.857H24.2858Z" fill="#00BCD4"></path></svg> 