<?xml version="1.0" encoding="UTF-8"?> <svg xmlns="http://www.w3.org/2000/svg" width="40" height="40" viewBox="0 0 40 40" fill="none"><path d="M12.5711 14.7141V18.4284C12.5711 19.3808 13.288 20.1658 14.2116 20.2731L14.4282 20.2856H25.5711C26.5235 20.2856 27.3084 19.5686 27.4157 18.645L27.4282 18.4284V14.7141H36.7139V33.2856C36.7139 35.3369 35.051 36.9999 32.9997 36.9999H6.99965C4.94831 36.9999 3.28537 35.3369 3.28537 33.2856V14.7141H12.5711ZM16.2854 29.5713H8.85679C7.83112 29.5713 6.99965 30.4028 6.99965 31.4284C6.99965 32.3808 7.71658 33.1658 8.64021 33.2731L8.85679 33.2856H16.2854C17.311 33.2856 18.1425 32.4541 18.1425 31.4284C18.1425 30.4028 17.311 29.5713 16.2854 29.5713ZM25.5711 14.7141V17.4999C25.5711 18.0127 25.1553 18.4284 24.6425 18.4284H15.3568C14.844 18.4284 14.4282 18.0127 14.4282 17.4999V14.7141H25.5711ZM34.8568 3.57129C36.9081 3.57129 38.5711 5.23423 38.5711 7.28557V10.9999C38.5711 12.0255 37.7396 12.857 36.7139 12.857H3.28537C2.25969 12.857 1.42822 12.0255 1.42822 10.9999V7.28557C1.42822 5.23423 3.09116 3.57129 5.14251 3.57129H34.8568Z" fill="#F5BC42"></path></svg> 