<?xml version="1.0" encoding="UTF-8"?> <svg xmlns="http://www.w3.org/2000/svg" width="40" height="40" viewBox="0 0 40 40" fill="none"><path d="M29.6493 1.42847C32.4466 1.42847 34.7143 3.69612 34.7143 6.4934V33.5064C34.7143 36.3037 32.4466 38.5713 29.6493 38.5713H10.0649C7.26765 38.5713 5 36.3037 5 33.5064V6.4934C5 3.69612 7.26765 1.42847 10.0649 1.42847H29.6493ZM29.1429 18.1428H27.2857C26.26 18.1428 25.4286 18.9742 25.4286 19.9999V31.1428C25.4286 32.1684 26.26 32.9999 27.2857 32.9999H29.1429C30.1685 32.9999 31 32.1684 31 31.1428V19.9999C31 18.9742 30.1685 18.1428 29.1429 18.1428ZM19.8571 27.4285H18C16.9743 27.4285 16.1429 28.2599 16.1429 29.2856V31.1428C16.1429 32.1684 16.9743 32.9999 18 32.9999H19.8571C20.8828 32.9999 21.7143 32.1684 21.7143 31.1428V29.2856C21.7143 28.2599 20.8828 27.4285 19.8571 27.4285ZM12.4286 27.4285H10.5714C9.54576 27.4285 8.71429 28.2599 8.71429 29.2856V31.1428C8.71429 32.1684 9.54576 32.9999 10.5714 32.9999H12.4286C13.4542 32.9999 14.2857 32.1684 14.2857 31.1428V29.2856C14.2857 28.2599 13.4542 27.4285 12.4286 27.4285ZM12.4286 18.1428H10.5714C9.54576 18.1428 8.71429 18.9742 8.71429 19.9999V21.857C8.71429 22.8827 9.54576 23.7142 10.5714 23.7142H12.4286C13.4542 23.7142 14.2857 22.8827 14.2857 21.857V19.9999C14.2857 18.9742 13.4542 18.1428 12.4286 18.1428ZM19.8571 18.1428H18C16.9743 18.1428 16.1429 18.9742 16.1429 19.9999V21.857C16.1429 22.8827 16.9743 23.7142 18 23.7142H19.8571C20.8828 23.7142 21.7143 22.8827 21.7143 21.857V19.9999C21.7143 18.9742 20.8828 18.1428 19.8571 18.1428ZM29.1429 6.9999H10.5714C9.54576 6.9999 8.71429 7.83137 8.71429 8.85704V12.5713C8.71429 13.597 9.54576 14.4285 10.5714 14.4285H29.1429C30.1685 14.4285 31 13.597 31 12.5713V8.85704C31 7.83137 30.1685 6.9999 29.1429 6.9999Z" fill="#46978D"></path></svg> 