<?xml version="1.0" encoding="UTF-8"?>
<svg width="40px" height="40px" viewBox="0 0 40 40" version="1.1" xmlns="http://www.w3.org/2000/svg" xmlns:xlink="http://www.w3.org/1999/xlink">
    <!-- Generator: Sketch 64 (93537) - https://sketch.com -->
    <title>share</title>
    <desc>Created with Sketch.</desc>
    <g id="Website" stroke="none" stroke-width="1" fill="none" fill-rule="evenodd">
        <g id="article" transform="translate(-1380.000000, -929.000000)">
            <g id="block" transform="translate(1284.000000, 716.000000)">
                <g id="social-media" transform="translate(0.000000, 166.000000)">
                    <g id="share" transform="translate(96.000000, 47.000000)">
                        <circle id="Oval" fill="#0272B0" cx="20" cy="20" r="20"></circle>
                        <g id="Group" transform="translate(11.000000, 11.000000)" fill="#FFFFFF" fill-rule="nonzero">
                            <path d="M2.16120177,4.34288515 C3.35411798,4.34288515 4.32240355,3.35451035 4.32240355,2.16120177 C4.32240355,0.968246331 3.35419645,0 2.16120177,0 C0.968207095,0 0,0.968246331 0,2.16120177 C0,3.35451035 0.9678932,4.34288515 2.16120177,4.34288515 Z" id="Path"></path>
                            <path d="M10.0944496,17.9995647 L10.0944496,12.0491482 C10.0944496,10.4821876 10.3917468,8.96745124 12.331967,8.96745124 C14.1732363,8.96745124 14.2675189,10.6254058 14.2719771,11.9931736 L14.2721871,17.9995647 L17.9999571,17.9995647 L17.9999571,11.398249 C17.9999571,8.16788388 17.305662,5.68085978 13.5288853,5.68085978 C11.713242,5.68085978 10.4962344,6.67727813 9.9980056,7.62147231 L9.94578143,7.62147231 L9.94578143,5.98219835 L6.36667968,5.98219835 L6.36667968,17.9995647 L10.0944496,17.9995647 Z" id="Path"></path>
                            <polygon id="Path" points="4.02910852 17.9995647 4.02910852 5.98219835 0.297336414 5.98219835 0.297336414 17.9995647"></polygon>
                        </g>
                    </g>
                </g>
            </g>
        </g>
    </g>
</svg>