<?xml version="1.0" encoding="UTF-8"?>
<svg width="40px" height="40px" viewBox="0 0 40 40" version="1.1" xmlns="http://www.w3.org/2000/svg" xmlns:xlink="http://www.w3.org/1999/xlink">
    <!-- Generator: Sketch 64 (93537) - https://sketch.com -->
    <title>share</title>
    <desc>Created with Sketch.</desc>
    <g id="Website" stroke="none" stroke-width="1" fill="none" fill-rule="evenodd">
        <g id="article" transform="translate(-1332.000000, -929.000000)">
            <g id="block" transform="translate(1284.000000, 716.000000)">
                <g id="social-media" transform="translate(0.000000, 166.000000)">
                    <g id="share" transform="translate(48.000000, 47.000000)">
                        <circle id="Oval" fill="#23ABFF" cx="20" cy="20" r="20"></circle>
                        <path d="M16.1999967,28 C23.6250455,28 27.687523,21.8499778 27.687523,16.5125112 C27.687523,16.3375253 27.687523,16.1624642 27.6750106,15.9874782 C28.4625038,15.4124706 29.150048,14.6999768 29.6999556,13.9000087 C28.9749869,14.2124809 28.1874937,14.4375166 27.3749756,14.5249908 C28.2124434,14.0250201 28.8499379,13.2375269 29.1499729,12.2999974 C28.3749169,12.762506 27.4999495,13.1000031 26.5874824,13.274989 C25.8499261,12.4874958 24.7999728,12 23.6374452,12 C21.399977,12 19.5999549,13.8124969 19.5999549,16.0374903 C19.5999549,16.3500001 19.6374546,16.6624724 19.6999415,16.9624698 C16.3499954,16.7874463 13.3624585,15.1874726 11.3749756,12.7374811 C11.0249285,13.337476 10.8249929,14.0249826 10.8249929,14.7749761 C10.8249929,16.1749766 11.5374492,17.4124659 12.6249398,18.1374722 C11.9624956,18.1125225 11.3374384,17.9250241 10.7999681,17.6250267 L10.7999681,17.6750012 C10.7999681,19.6374969 12.1874937,21.2624578 14.0374903,21.6374922 C13.7000308,21.7249664 13.3375088,21.7749785 12.9750245,21.7749785 C12.7124892,21.7749785 12.4625038,21.7499912 12.2124809,21.7124915 C12.7250016,23.3125028 14.2125138,24.4749928 15.9875111,24.51253 C14.5999854,25.6000207 12.8624503,26.2375152 10.9749916,26.2375152 C10.6374945,26.2375152 10.3250223,26.2250028 10,26.1875407 C11.7875097,27.3374807 13.9124788,28 16.1999967,28 Z" id="Path" fill="#FFFFFF" fill-rule="nonzero"></path>
                    </g>
                </g>
            </g>
        </g>
    </g>
</svg>