<?xml version="1.0" encoding="UTF-8"?>
<svg width="40px" height="40px" viewBox="0 0 40 40" version="1.1" xmlns="http://www.w3.org/2000/svg" xmlns:xlink="http://www.w3.org/1999/xlink">
    <!-- Generator: Sketch 64 (93537) - https://sketch.com -->
    <title>share</title>
    <desc>Created with Sketch.</desc>
    <g id="Website" stroke="none" stroke-width="1" fill="none" fill-rule="evenodd">
        <g id="article" transform="translate(-1524.000000, -929.000000)">
            <g id="block" transform="translate(1284.000000, 716.000000)">
                <g id="social-media" transform="translate(0.000000, 166.000000)">
                    <g id="share" transform="translate(240.000000, 47.000000)">
                        <circle id="Oval" fill="#8596A8" cx="20" cy="20" r="20"></circle>
                        <g id="Icons/-Regular/-Feature/-Inbox" transform="translate(10.000000, 10.000000)" fill="#F2F4F7" fill-rule="nonzero">
                            <path d="M20,7 L20,17 C20,17.5522847 19.5522847,18 19,18 L1,18 C0.44771525,18 6.76353751e-17,17.5522847 0,17 L0,7 L9.25721865,10.7028875 C9.73404071,10.8936163 10.2659593,10.8936163 10.7427814,10.7028875 L20,7 Z M19,2 C19.5522847,2 20,2.44771525 20,3 L20,5 L10.7427814,8.70288746 C10.2659593,8.89361628 9.73404071,8.89361628 9.25721865,8.70288746 L0,5 L0,3 C-6.76353751e-17,2.44771525 0.44771525,2 1,2 L19,2 Z" id="Color"></path>
                        </g>
                    </g>
                </g>
            </g>
        </g>
    </g>
</svg>