<svg width="16" height="16" viewBox="0 0 16 16" fill="none" xmlns="http://www.w3.org/2000/svg">
<path d="M6.66671 1.33333C9.61223 1.33333 12 3.72115 12 6.66667C12 7.95935 11.5401 9.14463 10.775 10.0678L14.5203 13.8131C14.7155 14.0084 14.7155 14.325 14.5203 14.5202C14.3428 14.6977 14.065 14.7139 13.8692 14.5686L13.8132 14.5202L10.0678 10.775C9.14467 11.5401 7.95939 12 6.66671 12C3.72119 12 1.33337 9.61219 1.33337 6.66667C1.33337 3.72115 3.72119 1.33333 6.66671 1.33333ZM6.66671 2.33333C4.27347 2.33333 2.33337 4.27343 2.33337 6.66667C2.33337 9.0599 4.27347 11 6.66671 11C9.05994 11 11 9.0599 11 6.66667C11 4.27343 9.05994 2.33333 6.66671 2.33333Z" fill="#2B2A35"/>
</svg>
