<?xml version="1.0" encoding="UTF-8"?>
<svg width="40px" height="40px" viewBox="0 0 40 40" version="1.1" xmlns="http://www.w3.org/2000/svg" xmlns:xlink="http://www.w3.org/1999/xlink">
    <!-- Generator: Sketch 64 (93537) - https://sketch.com -->
    <title>share</title>
    <desc>Created with Sketch.</desc>
    <g id="Website" stroke="none" stroke-width="1" fill="none" fill-rule="evenodd">
        <g id="article" transform="translate(-1428.000000, -929.000000)">
            <g id="block" transform="translate(1284.000000, 716.000000)">
                <g id="social-media" transform="translate(0.000000, 166.000000)">
                    <g id="share" transform="translate(144.000000, 47.000000)">
                        <circle id="Oval" fill="#25D366" cx="20" cy="20" r="20"></circle>
                        <path d="M11,29 L15.7290257,27.7584664 C17.0307879,28.469635 18.4973057,28.8432879 19.9919564,28.8432879 L19.9959978,28.8432879 C24.9098293,28.8432879 29,24.8415179 29,19.923645 C29,17.5410636 27.9874922,15.3031093 26.3040336,13.6156093 C24.6205357,11.9281093 22.3785793,11 19.9959978,11 C15.078125,11 11.076355,15.00177 11.076355,19.9196429 C11.076355,21.4906093 11.486145,23.0254386 12.265625,24.3794643 L11,29 Z M19.9959978,27.3406328 C18.6620614,27.3406328 17.3562578,26.9830279 16.2192121,26.3080357 L15.9500078,26.1473214 L13.1455514,26.8825814 L13.8928571,24.1464364 L13.7160557,23.8651864 C12.9727522,22.6839207 12.5830514,21.3218907 12.5830514,19.9196429 C12.5830514,15.8334743 15.9098293,12.5066964 20,12.5066964 C21.9807957,12.5066964 23.8410557,13.2781328 25.2393014,14.6803414 C26.6375078,16.0825893 27.4973057,17.9428493 27.4933175,19.923645 C27.4933175,24.013855 24.0821272,27.3406328 19.9959978,27.3406328 Z M22.8526786,24.1745693 C23.2825971,24.11026 24.1705279,23.6361607 24.3553728,23.1138393 C24.5401786,22.5915179 24.5401786,22.1455514 24.4839129,22.0531093 C24.4316886,21.9526629 24.28302,21.8964364 24.0620379,21.7879464 C23.8410557,21.6754543 22.7441886,21.1370457 22.5392936,21.0647321 C22.3343593,20.9883772 22.18573,20.95224 22.0370614,21.1772243 C21.8883929,21.4022478 21.4625157,21.9004386 21.329895,22.0531093 C21.201355,22.2017779 21.0687343,22.2218672 20.8477522,22.109375 C19.5379464,21.4544721 18.6781093,20.9401943 17.81427,19.4575893 C17.5852836,19.0638471 18.0432957,19.09198 18.4692121,18.2401864 C18.5415257,18.0915179 18.5053493,17.9629386 18.4491228,17.8504464 C18.3928571,17.7379543 17.9468907,16.6410871 17.7620457,16.1950814 C17.5812422,15.7611607 17.3964364,15.8214286 17.2598136,15.813385 C17.1312343,15.8053414 16.982605,15.8053414 16.8339364,15.8053414 C16.6852679,15.8053414 16.4441964,15.8616071 16.2393014,16.0825893 C16.0343672,16.3075736 15.4598214,16.8459821 15.4598214,17.9428493 C15.4598214,18.9711623 16.1625679,19.967714 16.3397718,20.2107653 L16.3678414,20.249115 C16.4803728,20.3977836 17.9388471,22.6477836 20.1768014,23.6160714 C21.5910557,24.2267936 22.1455514,24.2790179 22.8526786,24.1745693 Z" id="w" fill="#FFFFFF" fill-rule="nonzero"></path>
                    </g>
                </g>
            </g>
        </g>
    </g>
</svg>